<?xml version="1.0" encoding="UTF-8" standalone="no"?>
<svg
   width="1920"
   height="1080"
   viewBox="0 0 1920 1080"
   version="1.1"
   id="svg8"
   inkscape:version="1.3.2 (091e20ef0f, 2023-11-25)"
   sodipodi:docname="advertisement_slide.svg"
   xml:space="preserve"
   inkscape:export-filename="advertisement_slide.png"
   inkscape:export-xdpi="96"
   inkscape:export-ydpi="96"
   xmlns:inkscape="http://www.inkscape.org/namespaces/inkscape"
   xmlns:sodipodi="http://sodipodi.sourceforge.net/DTD/sodipodi-0.dtd"
   xmlns="http://www.w3.org/2000/svg"
   xmlns:svg="http://www.w3.org/2000/svg"
   xmlns:rdf="http://www.w3.org/1999/02/22-rdf-syntax-ns#"
   xmlns:cc="http://creativecommons.org/ns#"
   xmlns:dc="http://purl.org/dc/elements/1.1/"><defs
     id="defs2"><style
       id="style224">.cls-1{fill:#f15b40;}.cls-2{fill:#fff;}.cls-3{fill:#d2d2d2;}</style><clipPath
       clipPathUnits="userSpaceOnUse"
       id="clipPath2696"><path
         d="M 0,0 H 900 V 612 H 0 Z"
         id="path2694" /></clipPath><clipPath
       clipPathUnits="userSpaceOnUse"
       id="clipPath2722"><path
         d="M 0,0 H 900 V 612 H 0 Z"
         id="path2720" /></clipPath><clipPath
       clipPathUnits="userSpaceOnUse"
       id="clipPath2744"><path
         d="M 0,0 H 900 V 612 H 0 Z"
         id="path2742" /></clipPath><clipPath
       clipPathUnits="userSpaceOnUse"
       id="clipPath2764"><path
         d="M 0,0 H 900 V 612 H 0 Z"
         id="path2762" /></clipPath></defs><sodipodi:namedview
     id="base"
     pagecolor="#ffffff"
     bordercolor="#666666"
     borderopacity="1.0"
     inkscape:pageopacity="0.0"
     inkscape:pageshadow="2"
     inkscape:zoom="0.72420197"
     inkscape:cx="1291.7667"
     inkscape:cy="499.17014"
     inkscape:document-units="px"
     inkscape:current-layer="layer1"
     showgrid="false"
     units="px"
     inkscape:window-width="3840"
     inkscape:window-height="2108"
     inkscape:window-x="2880"
     inkscape:window-y="52"
     inkscape:window-maximized="1"
     inkscape:document-rotation="0"
     inkscape:showpageshadow="2"
     inkscape:pagecheckerboard="0"
     inkscape:deskcolor="#d1d1d1" /><metadata
     id="metadata5"><rdf:RDF><cc:Work
         rdf:about=""><dc:format>image/svg+xml</dc:format><dc:type
           rdf:resource="http://purl.org/dc/dcmitype/StillImage" /></cc:Work></rdf:RDF></metadata><g
     inkscape:label="Layer 1"
     inkscape:groupmode="layer"
     id="layer1"
     transform="translate(0,-11.249983)"><rect
       style="fill:none;stroke:none;stroke-width:8.73124;stroke-miterlimit:11.5;stroke-dasharray:none;stop-color:#000000"
       id="rect8149"
       width="254.65076"
       height="265.37534"
       x="455.75037"
       y="729.93488"
       transform="matrix(1.4770197,0,0,0.88811169,-175.18442,86.257837)" /><rect
       style="fill:none;stroke:none;stroke-width:8.26258;stroke-miterlimit:11.5;stroke-dasharray:none;stop-color:#000000"
       id="rect8149-1"
       width="254.65076"
       height="265.37534"
       x="455.75037"
       y="729.93488"
       transform="matrix(1.6493259,0,0,0.88811169,144.348,86.257837)" /><rect
       style="fill:none;stroke:none;stroke-width:8.2827;stroke-miterlimit:11.5;stroke-dasharray:none;stop-color:#000000"
       id="rect8149-1-8"
       width="254.65076"
       height="265.37534"
       x="455.75037"
       y="729.93488"
       transform="matrix(1.6413213,0,0,0.88811169,589.93504,86.257837)" /><g
       id="g3126"
       transform="matrix(4.5512607,0,0,-4.5512607,-1417.0808,3244.5141)"
       style="stroke-width:0.29296"><g
         id="g2672"
         transform="translate(644.7677,484.2341)"
         style="stroke-width:0.29296"><path
           d="M 0,0 V 15.879 H 9.25 V 13.081 H 3.377 V 9.073 H 8.015 V 6.326 H 3.377 V 0 Z"
           style="fill:#1f294f;fill-opacity:1;fill-rule:nonzero;stroke:none;stroke-width:0.29296"
           id="path2674" /></g><g
         id="g2676"
         transform="translate(658.6792,500.1126)"
         style="stroke-width:0.29296"><path
           d="m 0,0 v -13.081 h 6.049 v -2.798 H -3.403 V 0 Z"
           style="fill:#1f294f;fill-opacity:1;fill-rule:nonzero;stroke:none;stroke-width:0.29296"
           id="path2678" /></g><g
         id="g2680"
         transform="translate(674.0422,500.1126)"
         style="stroke-width:0.29296"><path
           d="M 0,0 4.562,-15.879 H 1.134 l -0.983,3.655 h -4.637 l -1.009,-3.655 h -3.15 L -4.083,0 Z m -3.756,-9.552 h 3.176 l -1.512,5.671 h -0.101 z"
           style="fill:#1f294f;fill-opacity:1;fill-rule:nonzero;stroke:none;stroke-width:0.29296"
           id="path2682" /></g><g
         id="g2684"
         transform="translate(680.9583,484.2341)"
         style="stroke-width:0.29296"><path
           d="m 0,0 v 13.081 h -4.033 v 2.798 H 7.486 V 13.081 H 3.377 V 0 Z"
           style="fill:#1f294f;fill-opacity:1;fill-rule:nonzero;stroke:none;stroke-width:0.29296"
           id="path2686" /></g><path
         d="m 693.106,484.234 h -3.403 v 15.879 h 3.403 z"
         style="fill:#1f294f;fill-opacity:1;fill-rule:nonzero;stroke:none;stroke-width:0.29296"
         id="path2688" /><g
         id="g2690"
         style="stroke-width:0.29296"><g
           id="g2692"
           clip-path="url(#clipPath2696)"
           style="stroke-width:0.29296"><g
             id="g2698"
             transform="translate(702.7833,484.2341)"
             style="stroke-width:0.29296"><path
               d="m 0,0 c -0.328,0.655 -0.504,1.562 -0.605,3.529 -0.101,1.613 -0.529,2.344 -2.041,2.344 h -1.84 V 0 h -3.327 v 15.879 h 5.419 c 3.856,0 5.671,-1.891 5.671,-4.865 C 3.277,8.796 1.991,7.435 0.504,7.082 1.991,6.629 2.546,5.621 2.697,3.68 2.848,1.562 2.949,0.731 3.428,0 Z m -2.52,8.519 c 1.713,0 2.47,0.731 2.47,2.294 0,1.461 -0.757,2.344 -2.47,2.344 H -4.486 V 8.519 Z"
               style="fill:#1f294f;fill-opacity:1;fill-rule:nonzero;stroke:none;stroke-width:0.29296"
               id="path2700" /></g><g
             id="g2702"
             transform="translate(719.0389,491.6793)"
             style="stroke-width:0.29296"><path
               d="m 0,0 c 0,-4.713 -1.991,-7.713 -6.049,-7.713 -4.058,0 -6.049,3 -6.049,7.713 v 1.008 c 0,4.713 1.991,7.713 6.049,7.713 4.058,0 6.049,-3 6.049,-7.713 z m -3.478,1.689 c 0,2.822 -0.857,4.209 -2.571,4.209 -1.714,0 -2.571,-1.387 -2.571,-4.209 V -0.68 c 0,-2.823 0.857,-4.21 2.571,-4.21 1.714,0 2.571,1.387 2.571,4.21 z"
               style="fill:#1f294f;fill-opacity:1;fill-rule:nonzero;stroke:none;stroke-width:0.29296"
               id="path2704" /></g></g></g><g
         id="g2706"
         transform="translate(728.5651,490.7116)"
         style="stroke-width:0.29296"><path
           d="m 0,0 h 0.101 v 9.401 h 3.1 V -6.478 H 0.555 L -4.89,3.529 h -0.1 V -6.478 H -8.116 V 9.401 h 3.201 z"
           style="fill:#1f294f;fill-opacity:1;fill-rule:nonzero;stroke:none;stroke-width:0.29296"
           id="path2708" /></g><path
         d="m 644.768,475.563 h 0.654 v 4.741 h -0.654 z"
         style="fill:#1f294f;fill-opacity:1;fill-rule:nonzero;stroke:none;stroke-width:0.29296"
         id="path2710" /><g
         id="g2712"
         transform="translate(656.6081,476.6764)"
         style="stroke-width:0.29296"><path
           d="M 0,0 V 3.627 H 0.61 V -1.114 H 0.09 l -2.754,3.808 v -3.808 h -0.61 v 4.741 h 0.677 z"
           style="fill:#1f294f;fill-opacity:1;fill-rule:nonzero;stroke:none;stroke-width:0.29296"
           id="path2714" /></g><g
         id="g2716"
         style="stroke-width:0.29296"><g
           id="g2718"
           clip-path="url(#clipPath2722)"
           style="stroke-width:0.29296"><g
             id="g2724"
             transform="translate(665.0476,477.2935)"
             style="stroke-width:0.29296"><path
               d="m 0,0 c 0.038,-0.865 0.632,-1.31 1.43,-1.31 0.707,0 1.151,0.302 1.151,0.821 0,0.436 -0.286,0.647 -0.903,0.768 l -0.941,0.18 c -0.699,0.136 -1.181,0.512 -1.181,1.249 0,0.828 0.655,1.393 1.693,1.393 1.189,0 1.874,-0.632 1.882,-1.701 L 2.536,1.37 C 2.514,2.153 2.039,2.597 1.257,2.597 0.572,2.597 0.188,2.273 0.188,1.746 0.188,1.279 0.497,1.129 1.046,1.024 L 1.904,0.858 C 2.77,0.693 3.206,0.316 3.206,-0.444 c 0,-0.873 -0.753,-1.377 -1.776,-1.377 -1.167,0 -2.017,0.639 -2.017,1.783 z"
               style="fill:#1f294f;fill-opacity:1;fill-rule:nonzero;stroke:none;stroke-width:0.29296"
               id="path2726" /></g></g></g><g
         id="g2728"
         transform="translate(676.7616,475.5625)"
         style="stroke-width:0.29296"><path
           d="M 0,0 V 4.2 H -1.724 V 4.741 H 2.401 V 4.2 H 0.647 V 0 Z"
           style="fill:#1f294f;fill-opacity:1;fill-rule:nonzero;stroke:none;stroke-width:0.29296"
           id="path2730" /></g><path
         d="m 686.398,475.563 h 0.655 v 4.741 h -0.655 z"
         style="fill:#1f294f;fill-opacity:1;fill-rule:nonzero;stroke:none;stroke-width:0.29296"
         id="path2732" /><g
         id="g2734"
         transform="translate(696.0131,475.5625)"
         style="stroke-width:0.29296"><path
           d="M 0,0 V 4.2 H -1.724 V 4.741 H 2.401 V 4.2 H 0.647 V 0 Z"
           style="fill:#1f294f;fill-opacity:1;fill-rule:nonzero;stroke:none;stroke-width:0.29296"
           id="path2736" /></g><g
         id="g2738"
         style="stroke-width:0.29296"><g
           id="g2740"
           clip-path="url(#clipPath2744)"
           style="stroke-width:0.29296"><g
             id="g2746"
             transform="translate(705.5891,477.3763)"
             style="stroke-width:0.29296"><path
               d="m 0,0 v 2.928 h 0.647 v -2.935 c 0,-0.904 0.444,-1.347 1.272,-1.347 0.828,0 1.287,0.443 1.287,1.339 v 2.943 h 0.64 V 0 C 3.846,-1.385 2.988,-1.904 1.919,-1.904 0.85,-1.904 0,-1.385 0,0"
               style="fill:#1f294f;fill-opacity:1;fill-rule:nonzero;stroke:none;stroke-width:0.29296"
               id="path2748" /></g></g></g><g
         id="g2750"
         transform="translate(718.3264,475.5625)"
         style="stroke-width:0.29296"><path
           d="M 0,0 V 4.2 H -1.724 V 4.741 H 2.401 V 4.2 H 0.647 V 0 Z"
           style="fill:#1f294f;fill-opacity:1;fill-rule:nonzero;stroke:none;stroke-width:0.29296"
           id="path2752" /></g><g
         id="g2754"
         transform="translate(731.7662,475.5625)"
         style="stroke-width:0.29296"><path
           d="m 0,0 h -3.379 v 4.741 h 3.311 V 4.2 H -2.747 V 2.709 h 2.13 V 2.175 h -2.13 V 0.542 H 0 Z"
           style="fill:#1f294f;fill-opacity:1;fill-rule:nonzero;stroke:none;stroke-width:0.29296"
           id="path2756" /></g><g
         id="g2758"
         style="stroke-width:0.29296"><g
           id="g2760"
           clip-path="url(#clipPath2764)"
           style="stroke-width:0.29296"><g
             id="g2766"
             transform="translate(599.76,500.1126)"
             style="stroke-width:0.29296"><path
               d="m 0,0 v -24.496 h 9.325 c -3.691,2.807 -6.076,7.244 -6.076,12.239 0,5.006 2.394,9.451 6.099,12.257"
               style="fill:#1f294f;fill-opacity:1;fill-rule:nonzero;stroke:none;stroke-width:0.29296"
               id="path2768" /></g><g
             id="g2770"
             transform="translate(636.9974,500.1126)"
             style="stroke-width:0.29296"><path
               d="m 0,0 v -24.496 h -9.325 c 3.691,2.807 6.076,7.244 6.076,12.239 0,5.006 -2.394,9.451 -6.099,12.257"
               style="fill:#1f294f;fill-opacity:1;fill-rule:nonzero;stroke:none;stroke-width:0.29296"
               id="path2772" /></g><g
             id="g2774"
             transform="translate(607.8212,487.8647)"
             style="stroke-width:0.29296"><path
               d="M 0,0 C 0,5.782 4.687,10.469 10.468,10.469 16.25,10.469 20.937,5.782 20.937,0 20.937,-5.782 16.25,-10.468 10.468,-10.468 4.687,-10.468 0,-5.782 0,0"
               style="fill:#2f7ea1;fill-opacity:1;fill-rule:nonzero;stroke:none;stroke-width:0.29296"
               id="path2776" /></g></g></g></g><rect
       style="fill:none;stroke:#000000;stroke-width:5;stroke-miterlimit:11.5;stroke-dasharray:none;stop-color:#000000"
       id="rect6107"
       width="1875.5535"
       height="596.9231"
       x="61.439056"
       y="71.199661"
       transform="translate(-40,-28.750017)"
       ry="98.234192" /><g
       id="Layer_1-2"
       data-name="Layer 1"
       transform="matrix(3.4579815,0,0,3.4579815,103.01259,100.84947)"
       style="stroke-width:0.289186"><path
         d="m 0,110.55 h 3.38 v 2.56 h 0.08 a 6.46,6.46 0 0 1 2.68,-2.22 8.39,8.39 0 0 1 3.51,-0.79 9.38,9.38 0 0 1 3.74,0.72 8.23,8.23 0 0 1 2.85,2 8.79,8.79 0 0 1 1.82,3 10.28,10.28 0 0 1 0.64,3.66 10.38,10.38 0 0 1 -0.64,3.7 8.65,8.65 0 0 1 -1.82,3 8.46,8.46 0 0 1 -2.85,2 9.38,9.38 0 0 1 -3.74,0.71 8.31,8.31 0 0 1 -3.6,-0.8 6.12,6.12 0 0 1 -2.59,-2.2 H 3.38 v 13.14 H 0 Z m 9.24,2.71 A 6,6 0 0 0 6.8,113.73 5.27,5.27 0 0 0 5,115 a 5.71,5.71 0 0 0 -1.17,2 7.8,7.8 0 0 0 0,5 5.76,5.76 0 0 0 1.17,2 5.29,5.29 0 0 0 1.84,1.28 6.14,6.14 0 0 0 2.44,0.47 6.17,6.17 0 0 0 2.44,-0.47 5.38,5.38 0 0 0 1.84,-1.28 5.59,5.59 0 0 0 1.16,-2 7.62,7.62 0 0 0 0,-5 5.54,5.54 0 0 0 -1.16,-2 5.36,5.36 0 0 0 -1.84,-1.27 6,6 0 0 0 -2.48,-0.47 z"
         id="path228"
         style="stroke-width:0.289186" /><path
         d="m 24.15,100 h 3.38 v 28.39 h -3.38 z"
         id="path230"
         style="stroke-width:0.289186" /><path
         d="m 36.39,120.69 a 4.54,4.54 0 0 0 0.5,2.12 5.34,5.34 0 0 0 1.34,1.64 6.2,6.2 0 0 0 1.91,1 6.91,6.91 0 0 0 2.26,0.37 5,5 0 0 0 2.74,-0.73 9,9 0 0 0 2.14,-1.93 l 2.55,2 a 9.38,9.38 0 0 1 -7.83,3.64 9.74,9.74 0 0 1 -3.82,-0.71 8.33,8.33 0 0 1 -2.89,-2 8.81,8.81 0 0 1 -1.82,-3 10.61,10.61 0 0 1 -0.64,-3.7 9.63,9.63 0 0 1 0.7,-3.7 9.25,9.25 0 0 1 1.91,-3 8.76,8.76 0 0 1 2.91,-2 9.33,9.33 0 0 1 3.65,-0.59 8.8,8.8 0 0 1 4,0.83 7.88,7.88 0 0 1 2.69,2.16 8.68,8.68 0 0 1 1.52,3 12.68,12.68 0 0 1 0.47,3.4 v 1.2 z M 47.05,118 a 7.12,7.12 0 0 0 -0.35,-2.07 4.75,4.75 0 0 0 -1,-1.63 4.46,4.46 0 0 0 -1.6,-1.09 5.88,5.88 0 0 0 -2.23,-0.39 5.27,5.27 0 0 0 -2.27,0.47 5.55,5.55 0 0 0 -2.86,2.89 4.62,4.62 0 0 0 -0.39,1.82 z"
         id="path232"
         style="stroke-width:0.289186" /><path
         d="M 55.65,110.55 H 59 v 2.74 h 0.08 a 5,5 0 0 1 2.24,-2.29 7.43,7.43 0 0 1 3.68,-0.9 7.55,7.55 0 0 1 2.46,0.4 5.54,5.54 0 0 1 2.07,1.22 5.79,5.79 0 0 1 1.41,2.12 8.1,8.1 0 0 1 0.52,3.06 v 11.45 H 68 v -10.51 a 6,6 0 0 0 -0.33,-2.12 3.87,3.87 0 0 0 -0.91,-1.43 3.31,3.31 0 0 0 -1.29,-0.79 4.88,4.88 0 0 0 -1.52,-0.24 5.62,5.62 0 0 0 -2,0.33 4.06,4.06 0 0 0 -1.58,1.08 5,5 0 0 0 -1.05,1.85 8.46,8.46 0 0 0 -0.38,2.67 v 9.16 h -3.29 z"
         id="path234"
         style="stroke-width:0.289186" /><path
         d="m 76.6,119.45 a 9,9 0 0 1 0.74,-3.64 9.62,9.62 0 0 1 2,-3 9.23,9.23 0 0 1 3,-2 9.72,9.72 0 0 1 7.44,0 9.23,9.23 0 0 1 3,2 9.62,9.62 0 0 1 2,3 9.49,9.49 0 0 1 0,7.3 9.28,9.28 0 0 1 -2,3 9.49,9.49 0 0 1 -6.72,2.72 9.39,9.39 0 0 1 -3.72,-0.73 9.53,9.53 0 0 1 -3,-2 9.28,9.28 0 0 1 -2,-3 9.1,9.1 0 0 1 -0.74,-3.65 z m 3.61,0 a 7.45,7.45 0 0 0 0.41,2.5 5.76,5.76 0 0 0 1.17,2 5.29,5.29 0 0 0 1.84,1.28 6.57,6.57 0 0 0 4.88,0 5.38,5.38 0 0 0 1.84,-1.28 5.59,5.59 0 0 0 1.16,-2 7.62,7.62 0 0 0 0,-5 5.54,5.54 0 0 0 -1.16,-2 5.36,5.36 0 0 0 -1.84,-1.27 6.57,6.57 0 0 0 -4.88,0 5.27,5.27 0 0 0 -1.84,1.32 5.71,5.71 0 0 0 -1.17,2 7.39,7.39 0 0 0 -0.41,2.45 z"
         id="path236"
         style="stroke-width:0.289186" /><path
         d="m 100.71,110.55 h 3.38 v 2.56 h 0.08 a 6.46,6.46 0 0 1 2.68,-2.22 8.39,8.39 0 0 1 3.51,-0.79 9.34,9.34 0 0 1 3.74,0.72 8.27,8.27 0 0 1 2.86,2 9.12,9.12 0 0 1 1.82,3 10.9,10.9 0 0 1 0,7.36 9,9 0 0 1 -1.82,3 8.5,8.5 0 0 1 -2.86,2 9.34,9.34 0 0 1 -3.74,0.71 8.38,8.38 0 0 1 -3.6,-0.8 6.12,6.12 0 0 1 -2.59,-2.2 h -0.08 v 13.14 h -3.38 z m 9.24,2.71 a 6,6 0 0 0 -2.44,0.47 5.27,5.27 0 0 0 -1.84,1.27 5.54,5.54 0 0 0 -1.16,2 7.62,7.62 0 0 0 0,5 5.59,5.59 0 0 0 1.16,2 5.29,5.29 0 0 0 1.84,1.28 6.57,6.57 0 0 0 4.88,0 5.29,5.29 0 0 0 1.84,-1.28 5.76,5.76 0 0 0 1.17,-2 7.8,7.8 0 0 0 0,-5 5.71,5.71 0 0 0 -1.17,-2 5.27,5.27 0 0 0 -1.84,-1.27 6,6 0 0 0 -2.39,-0.47 z"
         id="path238"
         style="stroke-width:0.289186" /><path
         d="m 134.13,113.48 h -4.84 v 8.08 c 0,0.5 0,1 0,1.48 a 3.76,3.76 0 0 0 0.28,1.31 2.1,2.1 0 0 0 0.75,0.94 2.55,2.55 0 0 0 1.48,0.36 7.61,7.61 0 0 0 1.24,-0.11 3.7,3.7 0 0 0 1.17,-0.42 v 3.08 a 4.36,4.36 0 0 1 -1.56,0.47 11.2,11.2 0 0 1 -1.48,0.13 6.87,6.87 0 0 1 -3,-0.54 3.62,3.62 0 0 1 -1.57,-1.41 4.66,4.66 0 0 1 -0.61,-1.93 q -0.09,-1.08 -0.09,-2.16 v -9.28 H 122 v -2.93 h 3.9 v -5 h 3.38 v 5 h 4.84 z"
         id="path240"
         style="stroke-width:0.289186" /><path
         d="m 138.9,104.17 a 2.49,2.49 0 0 1 2.48,-2.48 2.47,2.47 0 0 1 1.75,4.23 2.48,2.48 0 0 1 -4.23,-1.75 z m 0.79,6.38 h 3.38 v 17.8 h -3.38 z"
         id="path242"
         style="stroke-width:0.289186" /><path
         d="m 162.11,115.28 a 7.17,7.17 0 0 0 -2,-1.48 5.51,5.51 0 0 0 -2.46,-0.51 5.39,5.39 0 0 0 -2.42,0.51 4.91,4.91 0 0 0 -1.73,1.39 6.42,6.42 0 0 0 -1.05,2 7.89,7.89 0 0 0 -0.36,2.38 6.79,6.79 0 0 0 0.41,2.35 6,6 0 0 0 1.17,1.93 5.33,5.33 0 0 0 1.8,1.3 5.79,5.79 0 0 0 2.37,0.47 5.39,5.39 0 0 0 2.44,-0.51 6.26,6.26 0 0 0 1.87,-1.48 l 2.41,2.4 a 7.64,7.64 0 0 1 -3.06,2.11 10.85,10.85 0 0 1 -3.7,0.63 10.21,10.21 0 0 1 -3.78,-0.67 8.62,8.62 0 0 1 -2.94,-1.9 8.29,8.29 0 0 1 -1.92,-2.93 10.16,10.16 0 0 1 -0.67,-3.77 10.3,10.3 0 0 1 0.67,-3.79 8.45,8.45 0 0 1 4.83,-4.9 9.91,9.91 0 0 1 3.81,-0.7 10.1,10.1 0 0 1 3.74,0.7 8.19,8.19 0 0 1 3.09,2.12 z"
         id="path244"
         style="stroke-width:0.289186" /><circle
         class="cls-1"
         cx="25.32"
         cy="44.419998"
         r="17.959999"
         id="circle246"
         style="stroke-width:0.289186" /><circle
         class="cls-2"
         cx="141.13"
         cy="16.049999"
         r="15.31"
         id="circle248"
         style="stroke-width:0.289186" /><circle
         class="cls-2"
         cx="141.13"
         cy="73.349998"
         r="15.46"
         id="circle250"
         style="stroke-width:0.289186" /><rect
         class="cls-3"
         x="72.940002"
         y="30.34"
         width="28.16"
         height="28.16"
         id="rect252"
         style="stroke-width:0.289186" /><path
         d="m 25.32,27.46 a 17,17 0 1 1 -17,17 17,17 0 0 1 17,-17 m 0,-1.75 A 18.71,18.71 0 1 0 44,44.42 18.71,18.71 0 0 0 25.32,25.71 Z"
         id="path254"
         style="stroke-width:0.289186" /><path
         class="cls-2"
         d="m 28,41.1 a 2,2 0 0 0 -0.93,-0.64 3.41,3.41 0 0 0 -1.09,-0.2 2.7,2.7 0 0 0 -0.63,0.07 2.61,2.61 0 0 0 -0.61,0.22 1.4,1.4 0 0 0 -0.46,0.41 1.11,1.11 0 0 0 0.25,1.48 4.35,4.35 0 0 0 1.07,0.56 l 1.4,0.43 a 5.87,5.87 0 0 1 1.41,0.6 3.52,3.52 0 0 1 1.08,1.06 3.26,3.26 0 0 1 0.43,1.77 4.12,4.12 0 0 1 -0.4,1.84 3.64,3.64 0 0 1 -1.06,1.3 4.56,4.56 0 0 1 -1.56,0.77 7.17,7.17 0 0 1 -4.15,-0.12 5.81,5.81 0 0 1 -2,-1.22 l 2,-2.18 a 2.73,2.73 0 0 0 1.08,0.88 3,3 0 0 0 1.35,0.32 3.4,3.4 0 0 0 0.69,-0.08 2.67,2.67 0 0 0 0.62,-0.24 1.4,1.4 0 0 0 0.45,-0.42 1,1 0 0 0 0.17,-0.58 1.08,1.08 0 0 0 -0.44,-0.91 4.18,4.18 0 0 0 -1.1,-0.56 C 25.13,45.51 24.65,45.35 24.14,45.2 a 6.82,6.82 0 0 1 -1.43,-0.63 3.41,3.41 0 0 1 -1.1,-1 A 2.94,2.94 0 0 1 21.18,41.88 3.78,3.78 0 0 1 21.6,40 3.94,3.94 0 0 1 22.67,38.71 4.74,4.74 0 0 1 24.21,38 6.14,6.14 0 0 1 26,37.69 a 7.2,7.2 0 0 1 2.07,0.3 4.73,4.73 0 0 1 1.81,1 z"
         id="path256"
         style="stroke-width:0.289186" /><path
         d="m 136.37,66.66 h 4.45 a 5.28,5.28 0 0 1 2,0.33 3.47,3.47 0 0 1 1.24,0.84 2.92,2.92 0 0 1 0.64,1.17 4.47,4.47 0 0 1 0.18,1.23 3.36,3.36 0 0 1 -0.21,1.17 3.45,3.45 0 0 1 -1.6,1.78 3.46,3.46 0 0 1 -1.3,0.39 l 3.59,5.77 h -2.14 L 140,73.73 h -1.91 v 5.58 h -1.72 z m 1.72,5.57 h 2.25 a 5.51,5.51 0 0 0 1,-0.08 2.68,2.68 0 0 0 0.88,-0.29 1.75,1.75 0 0 0 0.62,-0.62 2.11,2.11 0 0 0 0.23,-1 2.15,2.15 0 0 0 -0.23,-1 1.75,1.75 0 0 0 -0.62,-0.62 2.68,2.68 0 0 0 -0.88,-0.29 6.61,6.61 0 0 0 -1,-0.08 h -2.25 z"
         id="path258"
         style="stroke-width:0.289186" /><path
         d="m 141.13,57.3 a 16,16 0 0 0 -16,14.89 H 88.77 V 59.11 h 13 V 29.72 h -13 V 16.64 h 36.35 a 15.95,15.95 0 1 0 0,-1.75 H 87 V 29.72 H 72.33 V 43.54 H 49.69 l 5.38,-5 -1.19,-1.28 -7.7,7.16 7.7,7.15 1.19,-1.28 -5.37,-5 H 72.33 V 59.11 H 87 v 14.83 h 38.1 a 16,16 0 1 0 16,-16.64 z m 0,-55.55 a 14.3,14.3 0 1 1 -14.29,14.3 14.32,14.32 0 0 1 14.29,-14.3 z m -67,29.72 H 100 V 57.36 H 74.08 Z m 67.05,56.17 a 14.3,14.3 0 1 1 14.3,-14.29 14.31,14.31 0 0 1 -14.35,14.29 z"
         id="path260"
         style="stroke-width:0.289186" /><path
         d="m 137.49,15.57 c 0,-3.64 1.49,-6.43 4.19,-6.43 2.7,0 4,2.59 4,6.43 0,4 -1.31,6.65 -4.08,6.65 -2.53,0 -4.11,-2.22 -4.11,-6.65 z m 6.65,-0.68 c 0,-2.54 -0.82,-4.59 -2.55,-4.59 -1.73,0 -2.54,2.16 -2.54,4.59 z m -5.09,1.18 c 0,3.18 1.07,5 2.61,5 1.54,0 2.48,-2.08 2.48,-5 z"
         id="path262"
         style="stroke-width:0.289186" /></g><g
       id="g7"
       transform="translate(0,-40)"><g
         id="g5884"
         transform="matrix(1.066665,0,0,1.066665,726.34916,57.780427)"><path
           d="m 15.801,114.616 15.555,5.662 15.786,-5.746 -15.555,-5.662 z m 15.623,-12.783 15.556,5.662 15.785,-5.746 -15.555,-5.662 z"
           fill="#f7f7f4"
           stroke="#cccccc"
           stroke-width="0.355"
           stroke-linejoin="bevel"
           id="path5773" /><path
           d="m 31.424,101.833 15.556,5.662 v 18.282 l -15.556,-5.661 z"
           fill="#efeeea"
           stroke="#cccccc"
           stroke-width="0.355"
           stroke-linejoin="bevel"
           id="path5775" /><path
           d="m 0.178,138.76 15.555,5.663 15.786,-5.746 -15.556,-5.662 z"
           fill="#f7f7f4"
           stroke="#cccccc"
           stroke-width="0.355"
           stroke-linejoin="bevel"
           id="path5777" /><path
           d="m 0.178,138.76 15.555,5.663 v 18.282 L 0.178,157.044 Z"
           fill="#efeeea"
           stroke="#cccccc"
           stroke-width="0.355"
           stroke-linejoin="bevel"
           id="path5779" /><path
           d="m 0.178,112.76 15.555,5.663 15.786,-5.746 -15.556,-5.662 z"
           fill="#f7f7f4"
           stroke="#cccccc"
           stroke-width="0.355"
           stroke-linejoin="bevel"
           id="path5781" /><path
           d="m 15.733,118.423 v 18.282 l 15.786,-5.745 v -18.283 z"
           fill="#ffffff"
           stroke="#cccccc"
           stroke-width="0.355"
           stroke-linejoin="bevel"
           id="path5783" /><path
           d="m 0.178,112.76 15.555,5.663 v 18.282 L 0.178,131.044 Z"
           fill="#efeeea"
           stroke="#cccccc"
           stroke-width="0.355"
           stroke-linejoin="bevel"
           id="path5785" /><path
           d="m 15.8,144.442 15.556,5.662 v 18.283 l -15.555,-5.662 z"
           fill="#efeeea"
           stroke="#cccccc"
           stroke-width="0.355"
           stroke-linejoin="bevel"
           id="path5791" /><path
           d="m 15.8,125.978 15.556,5.662 15.786,-5.746 -15.555,-5.661 z"
           fill="#f7f7f4"
           stroke="#cccccc"
           stroke-width="0.355"
           stroke-linejoin="bevel"
           id="path5793" /><path
           d="m 15.8,125.978 15.556,5.662 v 18.283 l -15.555,-5.662 z"
           fill="#efeeea"
           stroke="#cccccc"
           stroke-width="0.355"
           stroke-linejoin="bevel"
           id="path5795" /><path
           d="m 93.85,138.741 v 18.283 l 15.785,-5.745 v -18.283 z"
           fill="#ffffff"
           stroke="#cccccc"
           stroke-width="0.355"
           stroke-linejoin="bevel"
           id="path5797" /><path
           d="m 78.226,144.423 v 18.282 l 15.786,-5.745 v -18.283 z"
           fill="#ffd242"
           stroke="#cccccc"
           stroke-width="0.355"
           stroke-linejoin="bevel"
           id="path5799" /><path
           d="m 91.151,148.88 a 2.617,3.737 35 0 1 -3.032,4.33 2.617,3.737 35 0 1 -3.031,-2.122 2.617,3.737 35 0 1 3.031,-4.33 2.617,3.737 35 0 1 3.032,2.123 z"
           fill="#ffffff"
           id="path5801" /><path
           d="m 62.603,150.104 v 18.283 l 15.786,-5.746 v -18.283 z"
           fill="#ffd242"
           stroke="#cccccc"
           stroke-width="0.355"
           stroke-linejoin="bevel"
           id="path5803" /><path
           d="m 46.98,155.785 v 18.283 l 15.785,-5.746 V 150.04 Z"
           fill="#ffffff"
           stroke="#cccccc"
           stroke-width="0.355"
           stroke-linejoin="bevel"
           id="path5805" /><path
           d="m 31.424,150.123 15.556,5.662 v 18.283 l -15.556,-5.662 z"
           fill="#efeeea"
           stroke="#cccccc"
           stroke-width="0.355"
           stroke-linejoin="bevel"
           id="path5807" /><path
           d="m 93.85,120.278 v 18.282 l 15.785,-5.745 v -18.283 z"
           fill="#ffd242"
           stroke="#cccccc"
           stroke-width="0.355"
           stroke-linejoin="bevel"
           id="path5809" /><path
           d="M 78.294,96.152 93.85,101.814 109.635,96.068 94.08,90.406 Z"
           fill="#ffc91d"
           stroke="#cccccc"
           stroke-width="0.355"
           stroke-linejoin="bevel"
           id="path5811" /><path
           d="m 93.85,101.814 v 18.282 l 15.785,-5.745 V 96.068 Z m -15.624,24.145 v 18.282 l 15.786,-5.745 v -18.283 z"
           fill="#ffd242"
           stroke="#cccccc"
           stroke-width="0.355"
           stroke-linejoin="bevel"
           id="path5813" /><path
           d="m 78.226,107.495 v 18.282 l 15.786,-5.745 v -18.283 z"
           fill="#3775a9"
           stroke="#cccccc"
           stroke-width="0.355"
           stroke-linejoin="bevel"
           id="path5815" /><path
           d="M 62.671,83.369 78.226,89.031 94.012,83.285 78.457,77.624 Z"
           fill="#2f6491"
           stroke="#cccccc"
           stroke-width="0.355"
           stroke-linejoin="bevel"
           id="path5817" /><path
           d="m 78.226,89.03 v 18.283 l 15.786,-5.745 V 83.285 Z"
           fill="#3775a9"
           stroke="#cccccc"
           stroke-width="0.355"
           stroke-linejoin="bevel"
           id="path5819" /><path
           d="m 62.603,131.64 v 18.283 l 15.786,-5.746 v -18.283 z"
           fill="#ffd242"
           stroke="#cccccc"
           stroke-width="0.355"
           stroke-linejoin="bevel"
           id="path5821" /><path
           d="m 62.603,113.176 v 18.283 l 15.786,-5.746 V 107.43 Z M 46.98,137.321 v 18.283 l 15.785,-5.746 v -18.282 z"
           fill="#3775a9"
           stroke="#cccccc"
           stroke-width="0.355"
           stroke-linejoin="bevel"
           id="path5823" /><path
           d="m 31.424,131.66 15.556,5.661 v 18.283 l -15.556,-5.662 z m 0,-18.465 15.556,5.662 15.785,-5.745 -15.555,-5.662 z"
           fill="#2f6491"
           stroke="#cccccc"
           stroke-width="0.355"
           stroke-linejoin="bevel"
           id="path5825" /><path
           d="m 46.98,118.857 v 18.283 l 15.785,-5.746 v -18.282 z"
           fill="#3775a9"
           stroke="#cccccc"
           stroke-width="0.355"
           stroke-linejoin="bevel"
           id="path5827" /><path
           d="m 31.424,113.195 15.556,5.662 V 137.14 L 31.424,131.478 Z M 47.048,89.05 62.603,94.712 78.389,88.966 62.833,83.305 Z"
           fill="#2f6491"
           stroke="#cccccc"
           stroke-width="0.355"
           stroke-linejoin="bevel"
           id="path5829" /><path
           d="m 62.603,94.712 v 18.283 l 15.786,-5.746 V 88.966 Z"
           fill="#3775a9"
           stroke="#cccccc"
           stroke-width="0.355"
           stroke-linejoin="bevel"
           id="path5831" /><path
           d="m 47.048,89.05 15.555,5.662 v 18.283 l -15.555,-5.662 z"
           fill="#2f6491"
           stroke="#cccccc"
           stroke-width="0.355"
           stroke-linejoin="bevel"
           id="path5833" /><path
           d="m 71.528,100.584 a 2.617,3.737 35 0 1 -3.032,4.33 2.617,3.737 35 0 1 -3.032,-2.123 2.617,3.737 35 0 1 3.032,-4.33 2.617,3.737 35 0 1 3.032,2.123 z"
           fill="#ffffff"
           id="path5835" /></g><text
         xml:space="preserve"
         style="font-size:36px;font-family:sans-serif;-inkscape-font-specification:sans-serif;text-align:center;text-anchor:middle;fill:none;stroke:#000000;stroke-width:10;stroke-miterlimit:11.5;stroke-dasharray:none;stop-color:#000000"
         x="782.30884"
         y="171.59589"
         id="text6717"
         transform="translate(88.59849,31.140063)"><tspan
           sodipodi:role="line"
           id="tspan6715"
           x="782.30884"
           y="171.59589"
           style="font-style:normal;font-variant:normal;font-weight:normal;font-stretch:normal;font-size:36px;font-family:monospace;-inkscape-font-specification:monospace;text-align:start;text-anchor:start;fill:#000000;stroke:none">&gt; pip install plenoptic</tspan></text></g><g
       id="g6843"
       transform="translate(-105.9959,77.2055)"><path
         fill-rule="evenodd"
         clip-rule="evenodd"
         d="M 48.854,0 C 21.839,0 0,22 0,49.217 c 0,21.756 13.993,40.172 33.405,46.69 2.427,0.49 3.316,-1.059 3.316,-2.362 0,-1.141 -0.08,-5.052 -0.08,-9.127 -13.59,2.934 -16.42,-5.867 -16.42,-5.867 -2.184,-5.704 -5.42,-7.17 -5.42,-7.17 -4.448,-3.015 0.324,-3.015 0.324,-3.015 4.934,0.326 7.523,5.052 7.523,5.052 4.367,7.496 11.404,5.378 14.235,4.074 0.404,-3.178 1.699,-5.378 3.074,-6.6 -10.839,-1.141 -22.243,-5.378 -22.243,-24.283 0,-5.378 1.94,-9.778 5.014,-13.2 -0.485,-1.222 -2.184,-6.275 0.486,-13.038 0,0 4.125,-1.304 13.426,5.052 a 46.97,46.97 0 0 1 12.214,-1.63 c 4.125,0 8.33,0.571 12.213,1.63 9.302,-6.356 13.427,-5.052 13.427,-5.052 2.67,6.763 0.97,11.816 0.485,13.038 3.155,3.422 5.015,7.822 5.015,13.2 0,18.905 -11.404,23.06 -22.324,24.283 1.78,1.548 3.316,4.481 3.316,9.126 0,6.6 -0.08,11.897 -0.08,13.526 0,1.304 0.89,2.853 3.316,2.364 C 83.634,89.388 97.627,70.973 97.627,49.217 97.707,22 75.788,0 48.854,0 Z"
         fill="#24292f"
         id="path5926"
         transform="matrix(1.0753004,0,0,1.0753004,837.25668,420.9863)"
         style="stroke-width:0.929973" /><text
         xml:space="preserve"
         style="font-style:normal;font-variant:normal;font-weight:normal;font-stretch:normal;font-size:36px;font-family:sans-serif;-inkscape-font-specification:sans-serif;text-align:start;text-anchor:start;fill:#000000;stroke:none;stroke-width:10;stroke-miterlimit:11.5;stroke-dasharray:none;stop-color:#000000"
         x="968.27087"
         y="455.15488"
         id="text6838"
         transform="translate(8.8323539,27.846058)"><tspan
           sodipodi:role="line"
           id="tspan6836"
           x="968.27087"
           y="455.15488">https://github.com/plenoptic-org/plenoptic/</tspan></text></g><rect
       style="fill:none;stroke:none;stroke-width:11.4617;stroke-miterlimit:11.5;stroke-dasharray:none;stop-color:#000000"
       id="rect7286-0"
       width="469.15497"
       height="685.13197"
       x="88.864418"
       y="669.88055"
       transform="matrix(0.93290396,0,0,0.81595478,500.33316,130.59453)"
       ry="0" /><text
       xml:space="preserve"
       style="font-style:normal;font-variant:normal;font-weight:normal;font-stretch:normal;font-size:36px;font-family:sans-serif;-inkscape-font-specification:sans-serif;text-align:start;text-anchor:start;fill:none;stroke:none;stroke-width:10;stroke-miterlimit:11.5;stroke-dasharray:none;stop-color:#000000"
       x="-23.190132"
       y="672.19989"
       id="text8009"
       transform="translate(124.11473,26.987372)"><tspan
         sodipodi:role="line"
         id="tspan8007"
         x="-23.190132"
         y="672.19989"
         style="font-weight:bold;fill:#000000">Core Developer</tspan></text><text
       xml:space="preserve"
       style="font-style:normal;font-variant:normal;font-weight:normal;font-stretch:normal;font-size:36px;font-family:sans-serif;-inkscape-font-specification:sans-serif;text-align:start;text-anchor:start;fill:none;stroke:none;stroke-width:10;stroke-miterlimit:11.5;stroke-dasharray:none;stop-color:#000000"
       x="-23.190132"
       y="672.19989"
       id="text8009-62"
       transform="translate(122.71073,79.577101)"><tspan
         sodipodi:role="line"
         id="tspan8007-6"
         x="-23.190132"
         y="672.19989"
         style="font-weight:normal;fill:#000000">Billy Broderick</tspan></text><text
       xml:space="preserve"
       style="font-style:normal;font-variant:normal;font-weight:normal;font-stretch:normal;font-size:36px;line-height:1.5;font-family:sans-serif;-inkscape-font-specification:'sans-serif, Normal';font-variant-ligatures:normal;font-variant-caps:normal;font-variant-numeric:normal;font-variant-east-asian:normal;text-align:start;word-spacing:0px;white-space:pre;shape-inside:url(#rect8149) url(#rect8149-1) url(#rect8149-1-8);display:inline;fill:#000000;stroke:none;stroke-width:10;stroke-miterlimit:11.5;stroke-dasharray:none;stop-color:#000000"
       x="120.3898"
       y="744.24396"
       id="text6995"
       transform="translate(-57.543542,-20)" /><text
       xml:space="preserve"
       style="font-style:normal;font-variant:normal;font-weight:normal;font-stretch:normal;font-size:36px;font-family:sans-serif;-inkscape-font-specification:sans-serif;text-align:start;text-anchor:start;fill:none;stroke:none;stroke-width:10;stroke-miterlimit:11.5;stroke-dasharray:none;stop-color:#000000"
       x="-23.190132"
       y="672.19989"
       id="text8009-6"
       transform="translate(465.01934,26.987372)"><tspan
         sodipodi:role="line"
         id="tspan8007-0"
         x="-23.190132"
         y="672.19989"
         style="font-weight:bold;fill:#000000">Contributors</tspan></text><g
       id="g1"
       transform="translate(0,70.377118)"><g
         id="g6848"
         transform="translate(-105.9959,17.2055)"><text
           xml:space="preserve"
           style="font-style:normal;font-variant:normal;font-weight:normal;font-stretch:normal;font-size:36px;font-family:monospace;-inkscape-font-specification:monospace;text-align:start;text-anchor:start;fill:#000000;stroke:none;stroke-width:10;stroke-miterlimit:11.5;stroke-dasharray:none;stop-color:#000000"
           x="855.37769"
           y="321.33878"
           id="text6834"
           transform="translate(121.72554,9.9261902)"><tspan
             sodipodi:role="line"
             id="tspan6832"
             x="855.37769"
             y="321.33878"
             style="font-style:normal;font-variant:normal;font-weight:normal;font-stretch:normal;font-size:36px;font-family:sans-serif;-inkscape-font-specification:sans-serif;text-align:start;text-anchor:start">https://docs.plenoptic.org</tspan></text></g><path
         fill="currentColor"
         d="m 19,2 -5,4.5 v 11 L 19,13 Z M 6.5,5 C 4.55,5 2.45,5.4 1,6.5 v 14.66 c 0,0.25 0.25,0.5 0.5,0.5 0.1,0 0.15,-0.07 0.25,-0.07 1.35,-0.65 3.3,-1.09 4.75,-1.09 1.95,0 4.05,0.4 5.5,1.5 1.35,-0.85 3.8,-1.5 5.5,-1.5 1.65,0 3.35,0.31 4.75,1.06 0.1,0.05 0.15,0.03 0.25,0.03 0.25,0 0.5,-0.25 0.5,-0.5 V 6.5 C 22.4,6.05 21.75,5.75 21,5.5 V 19 c -1.1,-0.35 -2.3,-0.5 -3.5,-0.5 -1.7,0 -4.15,0.65 -5.5,1.5 V 6.5 C 10.55,5.4 8.45,5 6.5,5"
         id="path1-5"
         transform="matrix(5.1614635,0,0,5.1614635,721.81251,277.1729)"
         style="stroke-width:0.193743;fill:#000000" /></g><g
       id="g8"
       transform="translate(0,44.506094)"><text
         xml:space="preserve"
         style="font-size:36px;font-family:sans-serif;-inkscape-font-specification:sans-serif;text-align:center;text-anchor:middle;fill:none;stroke:#000000;stroke-width:10;stroke-miterlimit:11.5;stroke-dasharray:none;stop-color:#000000"
         x="782.30884"
         y="171.59589"
         id="text6717-6"
         transform="translate(88.59849,74.009784)"><tspan
           sodipodi:role="line"
           id="tspan6715-0"
           x="782.30884"
           y="171.59589"
           style="font-style:normal;font-variant:normal;font-weight:normal;font-stretch:normal;font-size:36px;font-family:monospace;-inkscape-font-specification:monospace;text-align:start;text-anchor:start;fill:#000000;stroke:none">&gt; conda install plenoptic -c conda-forge</tspan></text><g
         id="g6"
         transform="translate(-196.32863,357.62211)"><path
           fill="currentColor"
           d="M 10.943,7.823 10.948,8.35 H 9.005 L 9.016,9.225 V 9.23 L 0.005,9.235 V 9.516 L 0,10.631 0.027,10.688 c 0.28,0.619 0.885,1.197 1.676,1.749 0.792,0.547 1.781,1.057 2.86,1.505 2.161,0.885 4.672,1.495 6.677,1.469 0.995,-0.016 1.681,0.301 2.156,0.895 0.459,0.568 0.683,1.453 0.697,2.557 l -3.505,2.787 0.011,2.532 h 16.453 l -0.005,-2.349 -3.505,-2.959 c 0.073,-2.687 0.943,-4.593 2.371,-5.875 1.448,-1.307 3.479,-1.984 5.828,-2.156 l 0.255,-0.021 0.005,-2.995 z m 0.568,0.562 19.927,0.005 -0.005,1.943 c -2.317,0.208 -4.391,0.891 -5.901,2.251 -1.213,1.093 -1.911,2.744 -2.255,4.708 l -2.156,0.005 0.005,0.563 2.047,-0.005 c -0.036,0.301 -0.151,0.536 -0.167,0.853 l -1.188,-0.005 -0.005,0.563 1.328,0.005 2.849,2.407 h -3.921 c -0.964,-0.896 -2.068,-1.484 -3.219,-1.541 -1.089,-0.053 -2.188,0.432 -3.183,1.385 l -3.973,-0.032 3,-2.375 v -0.136 c 0,-1.26 -0.267,-2.291 -0.855,-3.025 -0.527,-0.661 -1.344,-1 -2.323,-1.052 L 11.505,8.913 h 0.011 z M 9.573,8.912 h 1.369 l 0.011,5.875 C 9.104,14.755 6.786,14.246 4.781,13.422 3.729,12.99 2.77,12.49 2.026,11.974 1.291,11.47 0.781,10.938 0.567,10.479 V 9.798 L 9.015,9.793 v 2.88 H 9.578 V 9.793 H 9.583 L 9.578,9.214 V 8.913 Z m 9.25,11.785 c 1,0.048 2,0.584 2.907,1.439 l -0.005,1.484 h -5.792 l -0.011,-1.604 c 0.943,-0.953 1.928,-1.365 2.901,-1.319 m -7.678,1.35 4.215,0.032 0.009,1.541 h -4.213 z m 15.334,0.193 0.005,1.38 h -4.197 v -1.38 z"
           id="path1"
           transform="matrix(4.8941372,0,0,4.8941372,902.93599,-199.69487)"
           style="fill:#ffffff;stroke-width:0.204325" /><path
           style="opacity:1;fill:#000000;fill-opacity:1;stroke:none;stroke-width:19.9396;stroke-linecap:square;stroke-linejoin:round;stroke-miterlimit:4;stroke-dasharray:none;stroke-dashoffset:0;stroke-opacity:1"
           d="M 79.5,99.40761 C 73.181677,94.099241 66.966838,91.684343 58.408856,91.212231 49.325712,90.711147 44.116251,92.363825 36.991382,98.006826 L 33.141766,101.05578 19.132286,100.77789 5.1228069,100.5 16.01226,92 26.901714,83.5 26.370887,78 C 24.763657,61.347166 18.592316,53.512082 4.75,50.550302 L 2,49.961896 V 25.480948 1 h 76 76 V 7.8930112 C 154,15.197723 153.46345,16 148.57818,16 c -3.16455,0 -17.27929,3.645288 -22.07818,5.701933 -7.23496,3.100664 -16.40167,9.380288 -20.62496,14.12906 -5.14769,5.788194 -10.350539,16.473624 -12.638229,25.955938 L 91.5,68.985888 l -8.25,0.0071 C 75.118548,68.999899 75,69.035924 75,71.5 c 0,2.446395 0.162239,2.5 7.566422,2.5 h 7.566423 l -0.316423,2.75 C 89.526652,79.268369 89.09991,79.525672 84.75,79.804791 80.461482,80.079971 80,80.347144 80,82.554791 80,84.846021 80.33948,85 85.390991,85 c 5.288714,0 5.573291,0.153916 14.999999,8.112886 5.28496,4.462087 9.60901,8.287084 9.60901,8.500004 0,0.21291 -6.1875,0.37093 -13.75,0.35115 -13.210807,-0.0346 -13.867642,-0.1348 -16.75,-2.55643 z"
           id="path2"
           transform="matrix(0.63692469,0,0,0.63692469,958.25319,-159.12737)" /><path
           style="opacity:1;fill:#000000;fill-opacity:1;stroke:none;stroke-width:19.9396;stroke-linecap:square;stroke-linejoin:round;stroke-miterlimit:4;stroke-dasharray:none;stroke-dashoffset:0;stroke-opacity:1"
           d="M 63.173513,43.445701 C 42.538098,39.677379 17.826023,28.792215 7.8236799,19.06523 3.560762,14.919668 2,12.678015 2,10.700937 V 8 H 34 66 V 19 30 H 68.5 71 V 15.5 1 h 5 5 v 22 22 l -5.25,-0.108189 c -2.8875,-0.0595 -8.546919,-0.710253 -12.576487,-1.44611 z"
           id="path3"
           transform="matrix(0.63692469,0,0,0.63692469,904.75152,-156.57968)" /><path
           style="opacity:1;fill:#000000;fill-opacity:1;stroke:none;stroke-width:19.9396;stroke-linecap:square;stroke-linejoin:round;stroke-miterlimit:4;stroke-dasharray:none;stroke-dashoffset:0;stroke-opacity:1"
           d="M 2,6.5 V 1 H 18 34 V 6.5 12 H 18 2 Z"
           id="path4"
           transform="matrix(0.63692469,0,0,0.63692469,956.34242,-92.250277)" /><path
           style="opacity:1;fill:#000000;fill-opacity:1;stroke:none;stroke-width:19.9396;stroke-linecap:square;stroke-linejoin:round;stroke-miterlimit:4;stroke-dasharray:none;stroke-dashoffset:0;stroke-opacity:1"
           d="M 2.0000295,16.25 C 2.0000571,10.865358 2.2248791,10.320616 5.5382738,7.6768523 17.002264,-1.4702852 30.115319,-0.98097921 42.25,9.0467289 45.656656,11.86188 46,12.596734 46,17.072804 V 22 H 24 2 Z"
           id="path5"
           transform="matrix(0.63692469,0,0,0.63692469,979.90863,-98.619527)" /><path
           style="opacity:1;fill:#000000;fill-opacity:1;stroke:none;stroke-width:19.9396;stroke-linecap:square;stroke-linejoin:round;stroke-miterlimit:4;stroke-dasharray:none;stroke-dashoffset:0;stroke-opacity:1"
           d="M 2,5.5 V 1 H 17.5 33 V 5.5 10 H 17.5 2 Z"
           id="path6"
           transform="matrix(0.63692469,0,0,0.63692469,1011.1179,-90.976427)" /></g></g><rect
       style="font-variation-settings:normal;opacity:1;vector-effect:none;fill:none;fill-opacity:1;stroke:none;stroke-width:10;stroke-linecap:butt;stroke-linejoin:miter;stroke-miterlimit:11.5;stroke-dasharray:none;stroke-dashoffset:0;stroke-opacity:1;-inkscape-stroke:none"
       id="rect22"
       width="294.63953"
       height="220.41122"
       x="451.43588"
       y="716.82343"
       transform="matrix(1.066324,0,0,1,-37.459674,7.5935658)" /><rect
       style="font-variation-settings:normal;vector-effect:none;fill:none;fill-opacity:1;stroke:none;stroke-width:10;stroke-linecap:butt;stroke-linejoin:miter;stroke-miterlimit:11.5;stroke-dasharray:none;stroke-dashoffset:0;stroke-opacity:1;-inkscape-stroke:none"
       id="rect22-2"
       width="294.63953"
       height="220.41122"
       x="451.43588"
       y="716.82343"
       transform="matrix(1.066324,0,0,1,800.0382,7.5935658)" /><rect
       style="font-variation-settings:normal;vector-effect:none;fill:none;fill-opacity:1;stroke:none;stroke-width:10;stroke-linecap:butt;stroke-linejoin:miter;stroke-miterlimit:11.5;stroke-dasharray:none;stroke-dashoffset:0;stroke-opacity:1;-inkscape-stroke:none"
       id="rect22-0"
       width="294.63953"
       height="220.41122"
       x="451.43588"
       y="716.82343"
       transform="matrix(1.3688478,0,0,1,200.15143,7.5935658)" /><rect
       style="font-variation-settings:normal;vector-effect:none;fill:none;fill-opacity:1;stroke:none;stroke-width:10;stroke-linecap:butt;stroke-linejoin:miter;stroke-miterlimit:11.5;stroke-dasharray:none;stroke-dashoffset:0;stroke-opacity:1;-inkscape-stroke:none"
       id="rect22-0-3-5"
       width="294.63953"
       height="220.41122"
       x="451.43588"
       y="716.82343"
       transform="matrix(0.82964944,0,0,1,1281.0628,7.5935658)" /><text
       xml:space="preserve"
       style="font-style:normal;font-variant:normal;font-weight:normal;font-stretch:normal;font-size:36px;line-height:1.5;font-family:sans-serif;-inkscape-font-specification:'sans-serif, Normal';font-variant-ligatures:normal;font-variant-position:normal;font-variant-caps:normal;font-variant-numeric:normal;font-variant-alternates:normal;font-variant-east-asian:normal;font-feature-settings:normal;font-variation-settings:normal;text-indent:0;text-align:start;text-decoration-line:none;text-decoration-style:solid;text-decoration-color:#000000;letter-spacing:normal;word-spacing:0px;text-transform:none;writing-mode:lr-tb;direction:ltr;text-orientation:mixed;dominant-baseline:auto;baseline-shift:baseline;white-space:pre;shape-inside:url(#rect22) url(#rect22-0) url(#rect22-2) url(#rect22-0-3-5);display:inline;opacity:1;vector-effect:none;fill:#000000;fill-opacity:1;stroke:none;stroke-width:10;stroke-linecap:butt;stroke-linejoin:miter;stroke-miterlimit:11.5;stroke-dasharray:none;stroke-dashoffset:0;stroke-opacity:1;-inkscape-stroke:none;stop-color:#000000;stop-opacity:1"
       x="509.42282"
       y="1214.8733"
       id="text1"><tspan
         x="443.91602"
         y="761.67348"
         id="tspan1">Edoardo Balzani </tspan><tspan
         x="443.91602"
         y="815.67348"
         id="tspan12">Kate Bonnen </tspan><tspan
         x="443.91602"
         y="869.67348"
         id="tspan13">Hanna Dettki </tspan><tspan
         x="443.91602"
         y="923.67348"
         id="tspan14">Lyndon Duong </tspan><tspan
         x="818.09766"
         y="761.67348"
         id="tspan15">Daniel Herrera-Esposito </tspan><tspan
         x="818.09766"
         y="815.67348"
         id="tspan16">Pierre-Étienne Fiquet </tspan><tspan
         x="818.09766"
         y="869.67348"
         id="tspan17">Nikhil Parthasarathy </tspan><tspan
         x="818.09766"
         y="923.67348"
         id="tspan18">Eero Simoncelli 
</tspan><tspan
         x="1281.4141"
         y="761.67348"
         id="tspan19">Sarah Jo Venditto </tspan><tspan
         x="1281.4141"
         y="815.67348"
         id="tspan20">Guillaume Viejo </tspan><tspan
         x="1281.4141"
         y="869.67348"
         id="tspan21">Teddy Yerxa </tspan><tspan
         x="1281.4141"
         y="923.67348"
         id="tspan22">Xinyuan Zhao</tspan></text></g></svg>
