<svg xmlns="http://www.w3.org/2000/svg" viewBox="0 0 164.66 138.94"><defs><style>.cls-1{fill:#fff;}</style></defs><g id="Layer_2" data-name="Layer 2"><g id="Layer_1-2" data-name="Layer 1"><path class="cls-1" d="M0,110.55H3.38v2.56h.08a6.46,6.46,0,0,1,2.68-2.22,8.39,8.39,0,0,1,3.51-.79,9.38,9.38,0,0,1,3.74.72,8.23,8.23,0,0,1,2.85,2,8.79,8.79,0,0,1,1.82,3,10.28,10.28,0,0,1,.64,3.66,10.38,10.38,0,0,1-.64,3.7,8.65,8.65,0,0,1-1.82,3,8.46,8.46,0,0,1-2.85,2,9.38,9.38,0,0,1-3.74.71,8.31,8.31,0,0,1-3.6-.8,6.12,6.12,0,0,1-2.59-2.2H3.38v13.14H0Zm9.24,2.71a6,6,0,0,0-2.44.47A5.27,5.27,0,0,0,5,115a5.71,5.71,0,0,0-1.17,2,7.8,7.8,0,0,0,0,5,5.76,5.76,0,0,0,1.17,2,5.29,5.29,0,0,0,1.84,1.28,6.14,6.14,0,0,0,2.44.47,6.17,6.17,0,0,0,2.44-.47,5.38,5.38,0,0,0,1.84-1.28,5.59,5.59,0,0,0,1.16-2,7.62,7.62,0,0,0,0-5,5.54,5.54,0,0,0-1.16-2,5.36,5.36,0,0,0-1.84-1.27A6,6,0,0,0,9.24,113.26Z"/><path class="cls-1" d="M24.15,100h3.38v28.39H24.15Z"/><path class="cls-1" d="M36.39,120.69a4.54,4.54,0,0,0,.5,2.12,5.34,5.34,0,0,0,1.34,1.64,6.2,6.2,0,0,0,1.91,1,6.91,6.91,0,0,0,2.26.37,5,5,0,0,0,2.74-.73,9,9,0,0,0,2.14-1.93l2.55,2A9.38,9.38,0,0,1,42,128.8a9.74,9.74,0,0,1-3.82-.71,8.33,8.33,0,0,1-2.89-2,8.81,8.81,0,0,1-1.82-3,10.61,10.61,0,0,1-.64-3.7,9.63,9.63,0,0,1,.7-3.7,9.25,9.25,0,0,1,1.91-3,8.76,8.76,0,0,1,2.91-2A9.33,9.33,0,0,1,42,110.1a8.8,8.8,0,0,1,4,.83,7.88,7.88,0,0,1,2.69,2.16,8.68,8.68,0,0,1,1.52,3,12.68,12.68,0,0,1,.47,3.4v1.2ZM47.05,118a7.12,7.12,0,0,0-.35-2.07,4.75,4.75,0,0,0-1-1.63,4.46,4.46,0,0,0-1.6-1.09,5.88,5.88,0,0,0-2.23-.39,5.27,5.27,0,0,0-2.27.47,5.55,5.55,0,0,0-2.86,2.89,4.62,4.62,0,0,0-.39,1.82Z"/><path class="cls-1" d="M55.65,110.55H59v2.74h.08A5,5,0,0,1,61.32,111,7.43,7.43,0,0,1,65,110.1a7.55,7.55,0,0,1,2.46.4,5.54,5.54,0,0,1,2.07,1.22,5.79,5.79,0,0,1,1.41,2.12,8.1,8.1,0,0,1,.52,3.06v11.45H68V117.84a6,6,0,0,0-.33-2.12,3.87,3.87,0,0,0-.91-1.43,3.31,3.31,0,0,0-1.29-.79,4.88,4.88,0,0,0-1.52-.24,5.62,5.62,0,0,0-2,.33,4.06,4.06,0,0,0-1.58,1.08,5,5,0,0,0-1.05,1.85,8.46,8.46,0,0,0-.38,2.67v9.16H55.65Z"/><path class="cls-1" d="M76.6,119.45a9,9,0,0,1,.74-3.64,9.62,9.62,0,0,1,2-3,9.23,9.23,0,0,1,3-2,9.72,9.72,0,0,1,7.44,0,9.23,9.23,0,0,1,3,2,9.62,9.62,0,0,1,2,3,9.49,9.49,0,0,1,0,7.3,9.28,9.28,0,0,1-2,3,9.49,9.49,0,0,1-6.72,2.72,9.39,9.39,0,0,1-3.72-.73,9.53,9.53,0,0,1-3-2,9.28,9.28,0,0,1-2-3A9.1,9.1,0,0,1,76.6,119.45Zm3.61,0a7.45,7.45,0,0,0,.41,2.5,5.76,5.76,0,0,0,1.17,2,5.29,5.29,0,0,0,1.84,1.28,6.57,6.57,0,0,0,4.88,0,5.38,5.38,0,0,0,1.84-1.28,5.59,5.59,0,0,0,1.16-2,7.62,7.62,0,0,0,0-5,5.54,5.54,0,0,0-1.16-2,5.36,5.36,0,0,0-1.84-1.27,6.57,6.57,0,0,0-4.88,0A5.27,5.27,0,0,0,81.79,115a5.71,5.71,0,0,0-1.17,2A7.39,7.39,0,0,0,80.21,119.45Z"/><path class="cls-1" d="M100.71,110.55h3.38v2.56h.08a6.46,6.46,0,0,1,2.68-2.22,8.39,8.39,0,0,1,3.51-.79,9.34,9.34,0,0,1,3.74.72,8.27,8.27,0,0,1,2.86,2,9.12,9.12,0,0,1,1.82,3,10.9,10.9,0,0,1,0,7.36,9,9,0,0,1-1.82,3,8.5,8.5,0,0,1-2.86,2,9.34,9.34,0,0,1-3.74.71,8.38,8.38,0,0,1-3.6-.8,6.12,6.12,0,0,1-2.59-2.2h-.08v13.14h-3.38Zm9.24,2.71a6,6,0,0,0-2.44.47,5.27,5.27,0,0,0-1.84,1.27,5.54,5.54,0,0,0-1.16,2,7.62,7.62,0,0,0,0,5,5.59,5.59,0,0,0,1.16,2,5.29,5.29,0,0,0,1.84,1.28,6.57,6.57,0,0,0,4.88,0,5.29,5.29,0,0,0,1.84-1.28,5.76,5.76,0,0,0,1.17-2,7.8,7.8,0,0,0,0-5,5.71,5.71,0,0,0-1.17-2,5.27,5.27,0,0,0-1.84-1.27A6,6,0,0,0,110,113.26Z"/><path class="cls-1" d="M134.13,113.48h-4.84v8.08c0,.5,0,1,0,1.48a3.76,3.76,0,0,0,.28,1.31,2.1,2.1,0,0,0,.75.94,2.55,2.55,0,0,0,1.48.36,7.61,7.61,0,0,0,1.24-.11,3.7,3.7,0,0,0,1.17-.42v3.08a4.36,4.36,0,0,1-1.56.47,11.2,11.2,0,0,1-1.48.13,6.87,6.87,0,0,1-3-.54,3.62,3.62,0,0,1-1.57-1.41,4.66,4.66,0,0,1-.61-1.93q-.09-1.08-.09-2.16v-9.28H122v-2.93h3.9v-5h3.38v5h4.84Z"/><path class="cls-1" d="M138.9,104.17a2.49,2.49,0,0,1,2.48-2.48,2.47,2.47,0,0,1,1.75,4.23,2.48,2.48,0,0,1-4.23-1.75Zm.79,6.38h3.38v17.8h-3.38Z"/><path class="cls-1" d="M162.11,115.28a7.17,7.17,0,0,0-2-1.48,5.51,5.51,0,0,0-2.46-.51,5.39,5.39,0,0,0-2.42.51,4.91,4.91,0,0,0-1.73,1.39,6.42,6.42,0,0,0-1.05,2,7.89,7.89,0,0,0-.36,2.38,6.79,6.79,0,0,0,.41,2.35,6,6,0,0,0,1.17,1.93,5.33,5.33,0,0,0,1.8,1.3,5.79,5.79,0,0,0,2.37.47,5.39,5.39,0,0,0,2.44-.51,6.26,6.26,0,0,0,1.87-1.48l2.41,2.4a7.64,7.64,0,0,1-3.06,2.11,10.85,10.85,0,0,1-3.7.63,10.21,10.21,0,0,1-3.78-.67,8.62,8.62,0,0,1-2.94-1.9,8.29,8.29,0,0,1-1.92-2.93,10.16,10.16,0,0,1-.67-3.77,10.3,10.3,0,0,1,.67-3.79,8.45,8.45,0,0,1,4.83-4.9,9.91,9.91,0,0,1,3.81-.7,10.1,10.1,0,0,1,3.74.7,8.19,8.19,0,0,1,3.09,2.12Z"/><path class="cls-1" d="M25.32,27.46a17,17,0,1,1-17,17,17,17,0,0,1,17-17m0-1.75A18.71,18.71,0,1,0,44,44.42,18.71,18.71,0,0,0,25.32,25.71Z"/><path class="cls-1" d="M28,41.1a2,2,0,0,0-.93-.64,3.41,3.41,0,0,0-1.09-.2,2.7,2.7,0,0,0-.63.07,2.61,2.61,0,0,0-.61.22,1.4,1.4,0,0,0-.46.41,1.11,1.11,0,0,0,.25,1.48A4.35,4.35,0,0,0,25.6,43l1.4.43a5.87,5.87,0,0,1,1.41.6,3.52,3.52,0,0,1,1.08,1.06,3.26,3.26,0,0,1,.43,1.77,4.12,4.12,0,0,1-.4,1.84A3.64,3.64,0,0,1,28.46,50a4.56,4.56,0,0,1-1.56.77,7.17,7.17,0,0,1-4.15-.12,5.81,5.81,0,0,1-2-1.22l2-2.18a2.73,2.73,0,0,0,1.08.88,3,3,0,0,0,1.35.32,3.4,3.4,0,0,0,.69-.08,2.67,2.67,0,0,0,.62-.24,1.4,1.4,0,0,0,.45-.42,1,1,0,0,0,.17-.58,1.08,1.08,0,0,0-.44-.91,4.18,4.18,0,0,0-1.1-.56c-.44-.15-.92-.31-1.43-.46a6.82,6.82,0,0,1-1.43-.63,3.41,3.41,0,0,1-1.1-1,2.94,2.94,0,0,1-.43-1.69A3.78,3.78,0,0,1,21.6,40a3.94,3.94,0,0,1,1.07-1.29A4.74,4.74,0,0,1,24.21,38,6.14,6.14,0,0,1,26,37.69a7.2,7.2,0,0,1,2.07.3,4.73,4.73,0,0,1,1.81,1Z"/><path class="cls-1" d="M136.37,66.66h4.45a5.28,5.28,0,0,1,2,.33,3.47,3.47,0,0,1,1.24.84A2.92,2.92,0,0,1,144.7,69a4.47,4.47,0,0,1,.18,1.23,3.36,3.36,0,0,1-.21,1.17,3.45,3.45,0,0,1-1.6,1.78,3.46,3.46,0,0,1-1.3.39l3.59,5.77h-2.14L140,73.73h-1.91v5.58h-1.72Zm1.72,5.57h2.25a5.51,5.51,0,0,0,1-.08,2.68,2.68,0,0,0,.88-.29,1.75,1.75,0,0,0,.62-.62,2.11,2.11,0,0,0,.23-1,2.15,2.15,0,0,0-.23-1,1.75,1.75,0,0,0-.62-.62,2.68,2.68,0,0,0-.88-.29,6.61,6.61,0,0,0-1-.08h-2.25Z"/><path class="cls-1" d="M141.13,57.3a16,16,0,0,0-16,14.89H88.77V59.11h13V29.72h-13V16.64h36.35a15.95,15.95,0,1,0,0-1.75H87V29.72H72.33V43.54H49.69l5.38-5-1.19-1.28-7.7,7.16,7.7,7.15,1.19-1.28-5.37-5H72.33V59.11H87V73.94h38.1a16,16,0,1,0,16-16.64Zm0-55.55a14.3,14.3,0,1,1-14.29,14.3A14.32,14.32,0,0,1,141.13,1.75Zm-67,29.72H100V57.36H74.08Zm67.05,56.17a14.3,14.3,0,1,1,14.3-14.29A14.31,14.31,0,0,1,141.13,87.64Z"/><path class="cls-1" d="M137.49,15.57c0-3.64,1.49-6.43,4.19-6.43s4,2.59,4,6.43c0,4-1.31,6.65-4.08,6.65C139.07,22.22,137.49,20,137.49,15.57Zm6.65-.68c0-2.54-.82-4.59-2.55-4.59s-2.54,2.16-2.54,4.59Zm-5.09,1.18c0,3.18,1.07,5,2.61,5s2.48-2.08,2.48-5Z"/></g></g></svg>